<?xml version="1.0" encoding="UTF-8"?>
<svg xmlns="http://www.w3.org/2000/svg" xmlns:xlink="http://www.w3.org/1999/xlink" viewBox="0 0 150 150" width="150px" height="150px">
<g id="surface144823452">
<path style=" stroke:none;fill-rule:nonzero;fill:rgb(100%,100%,100%);fill-opacity:1;" d="M 75 6 C 36.929688 6 6 36.929688 6 75 C 6 113.070312 36.929688 144 75 144 C 113.070312 144 144 113.070312 144 75 C 144 36.929688 113.070312 6 75 6 Z M 75 12 C 109.828125 12 138 40.171875 138 75 C 138 109.828125 109.828125 138 75 138 C 40.171875 138 12 109.828125 12 75 C 12 40.171875 40.171875 12 75 12 Z M 102.261719 42.105469 C 100.210938 42.105469 97.90625 42.582031 95.210938 43.554688 C 91.019531 45.0625 41.761719 65.976562 36.160156 68.355469 C 32.953125 69.71875 26.988281 72.25 26.988281 78.292969 C 26.988281 82.296875 29.335938 85.164062 33.957031 86.8125 C 36.4375 87.699219 42.339844 89.484375 45.761719 90.429688 C 47.214844 90.828125 48.757812 91.03125 50.34375 91.03125 C 53.449219 91.03125 56.574219 90.257812 59.023438 88.890625 C 59 89.398438 59.015625 89.90625 59.074219 90.414062 C 59.441406 93.566406 61.386719 96.527344 64.265625 98.34375 C 66.148438 99.53125 81.539062 109.84375 83.835938 111.480469 C 87.0625 113.789062 90.632812 115.007812 94.148438 115.007812 C 100.867188 115.007812 103.125 108.070312 104.210938 104.734375 C 105.785156 99.898438 111.683594 60.546875 112.347656 53.605469 C 112.800781 48.851562 110.820312 44.9375 107.046875 43.128906 C 105.632812 42.449219 104.019531 42.105469 102.265625 42.105469 Z M 102.261719 48.105469 C 103.089844 48.105469 103.824219 48.242188 104.449219 48.542969 C 105.867188 49.226562 106.589844 50.742188 106.371094 53.039062 C 105.644531 60.609375 99.761719 99.027344 98.507812 102.878906 C 97.433594 106.171875 96.300781 109.007812 94.148438 109.007812 C 91.996094 109.007812 89.640625 108.253906 87.324219 106.59375 C 85.003906 104.9375 69.605469 94.609375 67.464844 93.261719 C 65.589844 92.082031 63.605469 89.136719 66.398438 86.285156 C 68.699219 83.9375 86.152344 67 87.644531 65.507812 C 88.753906 64.394531 88.234375 63.054688 87.148438 63.054688 C 86.773438 63.054688 86.324219 63.210938 85.855469 63.59375 C 84.035156 65.082031 58.605469 82.097656 56.402344 83.46875 C 54.945312 84.371094 52.6875 85.027344 50.34375 85.027344 C 49.34375 85.027344 48.332031 84.90625 47.363281 84.636719 C 43.976562 83.707031 38.25 81.96875 35.976562 81.15625 C 33.789062 80.378906 32.996094 79.632812 32.996094 78.292969 C 32.996094 76.390625 35.679688 75.078125 38.507812 73.875 C 41.496094 72.605469 93.199219 50.648438 97.242188 49.195312 C 99.113281 48.515625 100.828125 48.105469 102.261719 48.105469 Z M 102.261719 48.105469 "/>
</g>
</svg>
